<?xml version="1.0" encoding="utf-8"?>
<!-- Generator: Adobe Illustrator 14.0.0, SVG Export Plug-In . SVG Version: 6.00 Build 43363)  -->
<!DOCTYPE svg PUBLIC "-//W3C//DTD SVG 1.1//EN" "http://www.w3.org/Graphics/SVG/1.1/DTD/svg11.dtd">
<svg version="1.1" id="Layer_2" xmlns="http://www.w3.org/2000/svg" xmlns:xlink="http://www.w3.org/1999/xlink" x="0px" y="0px"
	 width="876.943px" height="761.993px" viewBox="0 0 876.943 761.993" enable-background="new 0 0 876.943 761.993"
	 xml:space="preserve">
<g>
	<path fill="#FFE6C8" d="M802.086,309.997v451.996H18.622V309.997C18.622,138.772,194.039,0,410.354,0
		C518.57,0,616.473,34.704,687.379,90.772C758.232,146.886,802.086,224.406,802.086,309.997z"/>
	<rect x="18.622" y="749.863" fill="#FFE6C8" width="783.464" height="12.13"/>
	<g>
		<path fill="#FFE6C8" d="M760.691,648.327l-16.334,7.667l-2.332-62.667l-44,2.333l1.332,68l-17.184,5.505
			c-18.666,0-41.148-14.505-41.148-14.505l-27.594,17.667c-9.566,8.333-15.859,34.6-10.143,36.329
			c0.73,0.221,1.52,0.356,2.383,0.356h196.414v-47.516C788.805,654.738,774.063,648.327,760.691,648.327z"/>
		<polygon fill="#FFE6C8" points="597.23,569.649 597.232,569.441 578.67,570.012 449.608,572.535 449.695,573.977 18.622,587.229 
			18.622,638.431 453.573,638.431 457.608,705.493 599.232,705.493 607.857,569.441 		"/>
	</g>
	<linearGradient id="SVGID_1_" gradientUnits="userSpaceOnUse" x1="312.231" y1="548.7188" x2="312.2309" y2="50.7998">
		<stop  offset="0" style="stop-color:#D4B6AE"/>
		<stop  offset="1" style="stop-color:#A29CAB"/>
	</linearGradient>
	<path fill="url(#SVGID_1_)" d="M531.492,50.799h-243.85H92.985c-45.264,0-81.955,36.701-81.955,81.958v135.241h276.612v280.72
		h325.79V132.758C613.432,87.5,576.744,50.799,531.492,50.799z"/>
	<rect x="15.743" y="546.653" fill="#81696A" width="597.472" height="59.416"/>
	<linearGradient id="SVGID_2_" gradientUnits="userSpaceOnUse" x1="138.2925" y1="305.6855" x2="138.2925" y2="267.999">
		<stop  offset="0" style="stop-color:#D4B6AE"/>
		<stop  offset="1" style="stop-color:#A29CAB"/>
	</linearGradient>
	<rect x="83.991" y="267.999" fill="url(#SVGID_2_)" width="108.604" height="37.687"/>
	<linearGradient id="SVGID_3_" gradientUnits="userSpaceOnUse" x1="138.2959" y1="343.4004" x2="138.2959" y2="305.6855">
		<stop  offset="0" style="stop-color:#D4B6AE"/>
		<stop  offset="1" style="stop-color:#A29CAB"/>
	</linearGradient>
	<rect x="103.042" y="305.686" fill="url(#SVGID_3_)" width="70.509" height="37.715"/>
	<path fill="#6E5A5B" d="M0,331.307c0,6.672,5.404,12.094,12.063,12.094h90.979V319.22H12.063C5.405,319.22,0,324.634,0,331.307z"/>
	<path fill="#9C8985" d="M128.86,187.823c0,17.565-14.256,31.841-31.863,31.841c-17.58,0-31.84-14.275-31.84-31.841
		c0-17.612,14.26-31.856,31.84-31.856C114.604,155.967,128.86,170.211,128.86,187.823z"/>
	<path fill="#FFFFFF" d="M120.304,187.582c0,15.539-12.61,28.167-28.177,28.167c-15.555,0-28.173-12.629-28.173-28.167
		c0-15.585,12.618-28.18,28.173-28.18C107.694,159.401,120.304,171.996,120.304,187.582z"/>
	<path fill="#9C8985" d="M242.54,187.823c0,17.565-14.275,31.841-31.841,31.841c-17.603,0-31.855-14.275-31.855-31.841
		c0-17.612,14.253-31.856,31.855-31.856C228.264,155.967,242.54,170.211,242.54,187.823z"/>
	<path fill="#FFFFFF" d="M234.717,187.582c0,15.539-12.637,28.167-28.177,28.167c-15.563,0-28.177-12.629-28.177-28.167
		c0-15.585,12.614-28.18,28.177-28.18C222.081,159.401,234.717,171.996,234.717,187.582z"/>
	<rect x="349.856" y="377.618" fill="#6E5A5B" width="201.839" height="16.394"/>
	<rect x="367.313" y="143.947" fill="#D4BCC2" width="166.912" height="164.504"/>
	<rect x="349.856" y="415.522" fill="#6E5A5B" width="201.839" height="16.394"/>
	<rect x="349.856" y="453.429" fill="#6E5A5B" width="201.839" height="16.386"/>
	<rect x="349.856" y="491.333" fill="#6E5A5B" width="201.839" height="16.394"/>
	<rect x="15.743" y="532.613" fill="#6D4B49" width="597.472" height="14.04"/>
	<g>
		
			<linearGradient id="SVGID_4_" gradientUnits="userSpaceOnUse" x1="2419.2178" y1="511.9023" x2="2419.2178" y2="451.207" gradientTransform="matrix(-1 0 0 1 2466.3945 0)">
			<stop  offset="0" style="stop-color:#E6C4C1"/>
			<stop  offset="1" style="stop-color:#CAC1D1"/>
		</linearGradient>
		<path fill="url(#SVGID_4_)" d="M47.208,451.207c0.734,4.236,1.689,8.416,2.923,12.519c-8.891,1.662-15.583,8.874-15.583,17.511
			c0,9.869,8.729,17.869,19.497,17.869c4.322,0,8.279-1.332,11.513-3.515c2.531,3.63,5.271,7.1,8.204,10.387
			c-5.539,3.711-12.338,5.925-19.717,5.925c-18.479,0-33.455-13.732-33.455-30.666C20.59,466.443,32.006,454.105,47.208,451.207z"/>
		
			<linearGradient id="SVGID_5_" gradientUnits="userSpaceOnUse" x1="2326.8467" y1="531.4219" x2="2326.8467" y2="426.4043" gradientTransform="matrix(-1 0 0 1 2466.3945 0)">
			<stop  offset="0" style="stop-color:#E6C4C1"/>
			<stop  offset="1" style="stop-color:#CAC1D1"/>
		</linearGradient>
		<path fill="url(#SVGID_5_)" d="M174.434,531.422h-69.779c-36.656-16.066-62.69-63.423-62.69-105.018H237.13
			C237.13,467.999,211.091,515.355,174.434,531.422z"/>
		
			<linearGradient id="SVGID_6_" gradientUnits="userSpaceOnUse" x1="2326.8467" y1="520.2715" x2="2326.8467" y2="437.5547" gradientTransform="matrix(-1 0 0 1 2466.3945 0)">
			<stop  offset="0" style="stop-color:#814B40"/>
			<stop  offset="1" style="stop-color:#BB6654"/>
		</linearGradient>
		<path fill="url(#SVGID_6_)" d="M171.989,520.271c27.031-13.066,49.248-48.146,53.323-82.717H53.783
			c4.075,34.57,26.286,69.65,53.317,82.717H171.989z"/>
		
			<linearGradient id="SVGID_7_" gradientUnits="userSpaceOnUse" x1="2326.8467" y1="465.1406" x2="2326.8467" y2="437.5547" gradientTransform="matrix(-1 0 0 1 2466.3945 0)">
			<stop  offset="0" style="stop-color:#DC7959"/>
			<stop  offset="1" style="stop-color:#FAAF83"/>
		</linearGradient>
		<path fill="url(#SVGID_7_)" d="M60.796,465.141c-3.469-8.943-5.914-18.279-7.014-27.586h171.529
			c-1.094,9.307-3.545,18.643-7.015,27.586H60.796z"/>
	</g>
	<g>
		<g>
			<linearGradient id="SVGID_8_" gradientUnits="userSpaceOnUse" x1="722.0068" y1="572.5352" x2="722.0068" y2="230.5083">
				<stop  offset="0" style="stop-color:#E6C4C1"/>
				<stop  offset="1" style="stop-color:#CAC1D1"/>
			</linearGradient>
			<path fill="url(#SVGID_8_)" d="M803.355,547.843c-1.625,14.063-13.57,24.692-27.713,24.692H668.381
				c-14.152,0-26.096-10.63-27.711-24.692l-36.805-317.335h236.283L803.355,547.843z"/>
			<linearGradient id="SVGID_9_" gradientUnits="userSpaceOnUse" x1="722.0068" y1="557.6201" x2="722.0068" y2="245.4233">
				<stop  offset="0" style="stop-color:#814B40"/>
				<stop  offset="1" style="stop-color:#BB6654"/>
			</linearGradient>
			<path fill="url(#SVGID_9_)" d="M668.381,557.62c-6.596,0-12.141-4.94-12.904-11.496l-34.865-300.701h202.791l-34.855,300.701
				c-0.771,6.556-6.309,11.496-12.904,11.496H668.381z"/>
			<linearGradient id="SVGID_10_" gradientUnits="userSpaceOnUse" x1="722.0117" y1="641.1611" x2="722.0117" y2="572.5352">
				<stop  offset="0" style="stop-color:#E6C4C1"/>
				<stop  offset="1" style="stop-color:#CAC1D1"/>
			</linearGradient>
			<rect x="694.918" y="572.535" fill="url(#SVGID_10_)" width="54.188" height="68.626"/>
			
				<linearGradient id="SVGID_11_" gradientUnits="userSpaceOnUse" x1="-1675.582" y1="1070.7129" x2="-1675.582" y2="1033.5859" gradientTransform="matrix(-1 0 0 -1 -953.5742 1709.9355)">
				<stop  offset="0" style="stop-color:#CAC1D1"/>
				<stop  offset="1" style="stop-color:#E6C4C1"/>
			</linearGradient>
			<path fill="url(#SVGID_11_)" d="M824.264,664.266c5.816,3.235,3.51,12.084-3.141,12.084H622.891
				c-6.658,0-8.947-8.849-3.141-12.084l23.289-12.959c14.232-7.915,30.297-12.084,46.576-12.084h64.775
				c16.289,0,32.361,4.169,46.586,12.084L824.264,664.266z"/>
			<linearGradient id="SVGID_12_" gradientUnits="userSpaceOnUse" x1="722.0068" y1="245.4229" x2="722.0068" y2="344.7017">
				<stop  offset="0" style="stop-color:#FEE4D4"/>
				<stop  offset="1" style="stop-color:#F9B09A"/>
			</linearGradient>
			<polygon fill="url(#SVGID_12_)" points="811.898,344.701 823.402,245.423 620.611,245.423 632.125,344.701 			"/>
			<linearGradient id="SVGID_13_" gradientUnits="userSpaceOnUse" x1="722.0117" y1="435.2559" x2="722.0117" y2="344.7012">
				<stop  offset="0" style="stop-color:#DC7959"/>
				<stop  offset="1" style="stop-color:#FAAF83"/>
			</linearGradient>
			<polygon fill="url(#SVGID_13_)" points="801.389,435.256 811.898,344.701 632.125,344.701 642.625,435.256 			"/>
		</g>
		
			<linearGradient id="SVGID_14_" gradientUnits="userSpaceOnUse" x1="943.3008" y1="881.3125" x2="943.3008" y2="779.7314" gradientTransform="matrix(0.9476 -0.3195 0.3195 0.9476 -326.7615 -81.5077)">
			<stop  offset="0" style="stop-color:#E6C4C1"/>
			<stop  offset="1" style="stop-color:#CAC1D1"/>
		</linearGradient>
		<path fill="url(#SVGID_14_)" d="M816.18,356c1.111,7.107,1.82,14.251,2.063,21.417c14.988-2.123,29.455,5.743,34.076,19.438
			c5.268,15.651-4.299,33.008-21.367,38.765c-6.857,2.311-13.848,2.311-20.139,0.579c-2.082,7.107-4.568,14.076-7.457,20.856
			c10.76,2.925,22.73,2.804,34.434-1.14c29.301-9.886,45.715-39.671,36.668-66.526C866.543,365.93,841.828,352.473,816.18,356z"/>
	</g>
	<g>
		<g>
			<linearGradient id="SVGID_15_" gradientUnits="userSpaceOnUse" x1="537.3379" y1="674.0127" x2="537.3379" y2="355.3232">
				<stop  offset="0" style="stop-color:#FAAF83"/>
				<stop  offset="1" style="stop-color:#DC7959"/>
			</linearGradient>
			<polygon fill="url(#SVGID_15_)" points="610.461,674.013 464.208,674.013 427.253,355.323 647.424,355.323 			"/>
			<linearGradient id="SVGID_16_" gradientUnits="userSpaceOnUse" x1="537.3379" y1="674.0127" x2="537.3379" y2="355.3232">
				<stop  offset="0" style="stop-color:#DB8B5C"/>
				<stop  offset="1" style="stop-color:#BE5837"/>
			</linearGradient>
			<polygon fill="url(#SVGID_16_)" points="647.424,355.323 440.136,374.974 492.482,674.013 464.208,674.013 427.253,355.323 			
				"/>
			<linearGradient id="SVGID_17_" gradientUnits="userSpaceOnUse" x1="619.2207" y1="674.0127" x2="619.2207" y2="355.3232">
				<stop  offset="0" style="stop-color:#FDD9C5"/>
				<stop  offset="1" style="stop-color:#F79A7C"/>
			</linearGradient>
			<polygon fill="url(#SVGID_17_)" points="610.461,674.013 647.424,355.323 591.018,674.013 			"/>
			<polygon fill="#AF663D" points="435.797,428.999 638.879,428.999 623.096,552.379 451.569,552.379 			"/>
			<polygon fill="#C97547" points="624.57,552.379 638.879,428.999 634.375,428.999 612.545,552.379 			"/>
			<polygon fill="#955734" points="449.593,428.999 435.797,428.999 450.102,552.379 471.196,552.379 			"/>
			<rect x="406.472" y="318.369" fill="#6D4B49" width="261.733" height="36.954"/>
			<rect x="424.36" y="281.419" fill="#6D4B49" width="225.953" height="36.95"/>
		</g>
		<g>
			<path fill="#5A3E3C" d="M533.588,536.15c-0.346-0.81-0.734-1.635-1.074-2.492c-0.252-0.874-0.514-1.771-0.781-2.686
				c-0.605-1.827-0.758-3.742-1.078-5.729c-0.24-1.972-0.232-4-0.281-6.067c0.08-2.035,0.145-4.167,0.422-6.235
				c0.424-4.199,1.293-8.398,2.287-12.55c0.506-2.076,0.99-4.128,1.547-6.147c0.514-1.915,0.979-3.799,1.428-5.946
				c0.271-1.876,0.549-3.751,0.809-5.618c0.4-1.932,0.172-3.759,0.297-5.634c0.16-1.892-0.193-3.646-0.377-5.418
				c-0.064-1.835-0.689-3.438-1.098-5.113c-0.922-3.318-2.541-6.235-4.309-8.928c-0.98-1.282-2.016-2.484-3.021-3.679
				c-1.141-1.05-2.158-2.212-3.326-3.134c-1.037-0.825-2.066-1.595-3.08-2.324c-11.296,7.774-19.067,23.795-19.067,42.34
				c0,24.82,13.881,45.145,31.553,47.164C534.141,537.376,533.885,536.768,533.588,536.15z"/>
			<path fill="#5A3E3C" d="M537.338,443.416c-3.373,0-6.627,0.697-9.709,1.939c0.256,0.129,0.51,0.241,0.766,0.385
				c1.531,0.762,2.988,1.836,4.592,2.837c1.482,1.146,2.965,2.461,4.451,3.863c0.67,0.77,1.336,1.571,2.02,2.364
				c0.67,0.817,1.416,1.619,1.928,2.572c1.059,1.868,2.422,3.727,3.102,5.883c0.811,2.107,1.732,4.271,2.027,6.548
				c0.441,2.268,0.99,4.584,0.906,6.884l0.096,3.503c0,0.577,0.037,1.17,0.018,1.747l-0.205,1.707
				c-0.309,2.324-0.525,4.464-0.926,6.964c-0.434,2.004-1.029,4.224-1.627,6.388c-0.594,2.02-1.17,4.023-1.756,6.011
				c-1.086,3.927-2.211,7.726-2.936,11.396c-0.807,3.671-1.287,7.197-1.447,10.522c0,1.651-0.133,3.286,0.084,4.809
				c0.053,0.777,0.115,1.539,0.168,2.284c0.148,0.729,0.309,1.435,0.457,2.141c0.172,0.688,0.252,1.41,0.484,2.051
				c0.232,0.586,0.457,1.154,0.658,1.731c17.551-2.188,31.303-22.456,31.303-47.156C571.791,464.63,556.363,443.416,537.338,443.416
				z"/>
		</g>
	</g>
</g>
</svg>
