<?xml version="1.0" encoding="utf-8"?>
<!-- Generator: Adobe Illustrator 14.0.0, SVG Export Plug-In  -->
<!DOCTYPE svg PUBLIC "-//W3C//DTD SVG 1.1//EN" "http://www.w3.org/Graphics/SVG/1.1/DTD/svg11.dtd" [
	<!ENTITY ns_flows "http://ns.adobe.com/Flows/1.0/">
]>
<svg version="1.1"
	 xmlns="http://www.w3.org/2000/svg" xmlns:xlink="http://www.w3.org/1999/xlink" xmlns:a="http://ns.adobe.com/AdobeSVGViewerExtensions/3.0/"
	 x="0px" y="0px" width="2425px" height="593px" viewBox="-0.571 -0.377 2425 593" enable-background="new -0.571 -0.377 2425 593"
	 xml:space="preserve">
<defs>
</defs>
<rect x="442.429" y="575.756" fill-rule="evenodd" clip-rule="evenodd" fill="#C1790E" width="1981.017" height="16.376"/>
<path display="none" fill-rule="evenodd" clip-rule="evenodd" fill="#FFFFFF" d="M1019.629,342.214
	c25.93,15.306,30.736,61.032,10.736,102.133c-8.736,17.953-20.761,32.048-33.693,40.959c0.177-1.286,0.341-2.564,0.493-3.836
	c5.869-13.019,7.5-28.244,6.295-42.749c-1.171-14.094-4.927-27.992-10.477-40.946c4.399-16.9,11.448-32.805,26.442-45.405
	c-16.694,6.989-26.047,19.219-32.13,33.593c-2.382-4.442-4.967-8.731-7.717-12.83c-4.769-7.109-10.18-13.864-16.129-20.01
	C981.821,337.46,1003.039,332.421,1019.629,342.214"/>
<path display="none" fill-rule="evenodd" clip-rule="evenodd" fill="#FFFFFF" d="M869.8,335.93
	c27.969-21.601,73.696-3.092,102.134,41.342c26.014,40.644,28.547,88.894,7.386,113.363
	c-7.822-72.604-87.533-76.861-100.025-149.141c-7.277,79.387,92.28,90.125,84.443,160.698
	c-28.043,12.209-67.539-6.779-93.086-46.694C842.213,411.063,841.832,357.532,869.8,335.93"/>
<polygon fill="#1B1E18" points="671.13,198.315 685.154,198.315 693.515,157.86 738.015,157.86 738.015,317.789 709.427,324.261 
	709.427,335.859 793.572,335.859 793.572,324.261 764.983,317.789 764.983,157.86 809.214,157.86 817.844,198.315 831.868,198.315 
	831.868,141.679 671.13,141.679 "/>
<path fill="#1B1E18" d="M985.864,260.073c0-15.459-0.767-27.731-2.292-36.811c-1.53-9.077-4.092-16.137-7.686-21.171
	c-3.418-4.674-8.004-8.269-13.756-10.788c-5.756-2.516-12.229-3.777-19.418-3.777c-10.248,0-19.822,2.52-28.722,7.552
	c-8.9,5.035-16.047,11.866-21.44,20.496v-90.078h-46.928v11.058l20.767,5.125v177.999l-20.767,5.123v11.059h64.997V324.8
	l-18.069-5.123V246.59c0.357-7.013,1.483-12.899,3.371-17.666c1.889-4.761,4.809-8.854,8.765-12.271
	c3.595-3.055,7.728-5.483,12.406-7.282c4.673-1.796,9.528-2.698,14.564-2.698c11.504,0,19.418,4.407,23.732,13.215
	c1.619,3.237,2.738,7.733,3.371,13.485c0.628,5.755,0.943,14.475,0.943,26.159v60.144l-18.069,5.123v11.059h64.997V324.8
	l-20.767-5.123V260.073z"/>
<path fill="#1B1E18" d="M1089.964,187.526c-19.957,0-35.733,6.925-47.331,20.768c-11.597,13.846-17.396,33.354-17.396,58.522
	c0,7.732,0.628,15.015,1.888,21.845c1.256,6.837,3.236,13.039,5.933,18.61c5.032,10.248,12.314,18.026,21.846,23.327
	c9.528,5.301,20.497,7.957,32.903,7.957c14.201,0,25.799-3.055,34.79-9.169c8.989-6.11,16.629-13.484,22.924-22.114l-8.63-6.473
	c-5.574,6.113-11.866,10.922-18.878,14.429c-7.013,3.506-14.745,5.257-23.194,5.257c-7.732,0-14.926-1.793-21.575-5.393
	c-6.653-3.595-11.778-9.527-15.374-17.8c-3.598-8.631-5.393-19.507-5.393-32.634h94.123c0.357-3.594,0.582-6.156,0.674-7.686
	c0.089-1.525,0.135-3.191,0.135-4.989c0-20.134-4.989-35.912-14.967-47.332C1122.462,193.236,1108.304,187.526,1089.964,187.526z
	 M1120.169,251.445h-67.423c2.157-32.904,14.024-49.354,35.6-49.354c10.249,0,18.111,3.506,23.599,10.518
	c5.482,7.013,8.225,16.991,8.225,29.936V251.445z"/>
<path fill="#1B1E18" d="M1331.338,321.294c-10.43,0-19.105-1.752-26.024-5.258c-6.925-3.506-12.811-9.036-17.667-16.587
	c-4.854-7.552-8.63-16.898-11.326-28.047c-2.696-11.146-4.045-23.101-4.045-35.87c0-13.662,1.524-26.202,4.585-37.623
	c3.054-11.416,7.281-20.631,12.675-27.643c4.315-5.753,9.574-9.979,15.778-12.677c6.2-2.696,13.706-4.046,22.52-4.046
	c15.462,0,27.731,4.004,36.813,12.003c9.076,8.002,14.875,19.916,17.395,35.734h16.45v-59.602h-14.832l-5.395,16.99
	c-6.834-7.37-13.754-12.493-20.766-15.373c-7.012-2.874-16.095-4.314-27.24-4.314c-22.478,0-40.547,5.664-54.208,16.992
	c-10.788,8.81-19.148,20.588-25.083,35.33c-5.933,14.744-8.898,31.195-8.898,49.354c0,16.005,2.333,30.567,7.012,43.691
	c4.673,13.125,11.415,24.002,20.228,32.631c14.741,14.388,34.52,21.576,59.333,21.576c41.17,0,65.806-20.944,73.896-62.839h-14.835
	C1382.488,306.104,1363.704,321.294,1331.338,321.294z"/>
<path fill="#1B1E18" d="M1537.651,204.517c-5.393-5.751-12.048-10.021-19.957-12.81c-7.913-2.787-16.814-4.181-26.699-4.181
	c-9.891,0-18.656,1.394-26.297,4.181c-7.643,2.79-14.34,7.24-20.091,13.351c-6.474,6.833-11.419,15.6-14.833,26.293
	c-3.416,10.701-5.123,21.892-5.123,33.578c0,11.509,1.661,22.161,4.987,31.96c3.326,9.8,8.045,18.026,14.159,24.676
	c5.394,5.757,11.955,10.025,19.688,12.811c7.729,2.788,16.541,4.18,26.432,4.18c10.066,0,19.055-1.443,26.969-4.315
	c7.911-2.873,14.563-7.28,19.956-13.214c6.292-6.831,11.191-15.507,14.699-26.024c3.504-10.52,5.259-21.619,5.259-33.309
	c0-11.505-1.619-22.25-4.854-32.228C1548.708,219.485,1543.942,211.171,1537.651,204.517z M1525.652,292.437
	c-1.531,8.273-3.914,14.745-7.147,19.419c-6.115,8.454-15.373,12.675-27.777,12.675c-6.838,0-12.368-1.255-16.587-3.776
	c-4.229-2.515-7.87-6.021-10.924-10.517c-3.059-5.212-5.441-11.819-7.147-19.822c-1.709-8-2.561-17.483-2.561-28.453
	c0-21.934,3.236-37.934,9.708-48.006c5.572-8.267,14.651-12.405,27.24-12.405c6.83,0,12.448,1.213,16.854,3.641
	c4.402,2.427,8.044,5.979,10.924,10.654c3.053,5.035,5.436,11.596,7.146,19.686c1.706,8.091,2.562,17.53,2.562,28.318
	C1527.942,274.638,1527.174,284.17,1525.652,292.437z"/>
<path fill="#1B1E18" d="M1676.808,264.659c-4.853-3.236-10.246-5.975-16.183-8.226c-5.933-2.246-11.957-4.267-18.067-6.067
	c-7.374-2.334-13.576-4.585-18.608-6.742c-5.038-2.157-8.858-4.809-11.464-7.957c-2.609-3.144-3.907-7.417-3.907-12.81
	c0-7.552,2.693-13.257,8.091-17.125c5.393-3.864,13.484-5.8,24.27-5.8c6.649,0,12.09,0.856,16.318,2.564
	c4.221,1.709,7.686,4.449,10.38,8.225c-2.875,1.26-5.216,3.282-7.012,6.069c-1.795,2.789-2.694,5.891-2.694,9.304
	c0,3.957,1.35,7.193,4.045,9.708c2.697,2.52,6.108,3.776,10.249,3.776c4.672,0,8.266-1.66,10.785-4.989
	c2.519-3.324,3.778-7.775,3.778-13.352c0-10.425-4.183-18.649-12.542-24.676c-8.358-6.022-19.734-9.035-34.117-9.035
	c-16.9,0-30.072,3.912-39.509,11.731c-9.44,7.821-14.159,18.205-14.159,31.15c0,9.169,2.16,16.543,6.474,22.114
	c4.313,5.576,9.884,9.938,16.721,13.081c6.832,3.148,13.929,5.89,21.306,8.225c5.934,1.619,11.82,3.554,17.665,5.799
	c5.84,2.25,10.739,5.171,14.697,8.765c3.952,3.601,5.933,8.361,5.933,14.294c0,7.376-3.193,13.128-9.57,17.26
	c-6.389,4.14-14.609,6.205-24.68,6.205c-7.733,0-14.609-1.123-20.632-3.372c-6.024-2.248-10.206-5.078-12.54-8.496
	c2.695-1.436,4.99-3.684,6.878-6.742c1.886-3.055,2.829-6.291,2.829-9.708c0-4.135-1.484-7.459-4.448-9.979
	c-2.969-2.517-6.606-3.776-10.924-3.776c-4.854,0-8.586,1.664-11.191,4.989c-2.609,3.328-3.909,7.867-3.909,13.619
	c0,10.969,4.853,19.688,14.563,26.162c9.708,6.472,22.47,9.708,38.295,9.708c11.504,0,21.665-1.71,30.476-5.124
	c8.806-3.413,15.732-8.404,20.768-14.968c5.029-6.563,7.551-14.429,7.551-23.598c0-7.19-1.442-13.217-4.316-18.07
	C1685.529,271.941,1681.663,267.896,1676.808,264.659z"/>
<path fill="#1B1E18" d="M1805.187,201.281l15.64,5.123l-33.981,105.722h-1.079l-40.183-105.722l19.147-5.123l-2.155-11.058h-60.414
	v11.058l16.183,5.123l55.826,131.342l-3.238,9.979c-2.875,8.631-5.528,14.967-7.952,19.015c-2.427,4.044-4.722,6.693-6.876,7.953
	c-2.159,1.257-4.5,1.89-7.014,1.89c-1.26,0-2.791-0.318-4.586-0.945c-1.802-0.633-2.876-1.846-3.235-3.642
	c1.614-1.798,2.919-3.868,3.909-6.202c0.987-2.34,1.483-4.766,1.483-7.282c0-3.956-1.212-7.059-3.641-9.305
	c-2.426-2.249-5.71-3.37-9.842-3.37c-4.681,0-8.454,1.66-11.33,4.989c-2.876,3.326-4.314,7.506-4.314,12.539
	c0,6.832,3.007,12.496,9.037,16.99c6.02,4.495,13.257,6.744,21.711,6.744c7.906,0,14.382-1.89,19.416-5.664
	c5.032-3.777,9.615-9.935,13.754-18.474c4.133-8.542,8.721-19.733,13.754-33.577l44.771-122.982l16.449-5.123v-11.058h-51.239
	V201.281z"/>
<path fill="#1B1E18" d="M2024.985,321.294c-10.428,0-19.105-1.752-26.024-5.258c-6.924-3.506-12.811-9.036-17.666-16.587
	c-4.854-7.552-8.628-16.898-11.327-28.047c-2.698-11.146-4.048-23.101-4.048-35.87c0-13.662,1.528-26.202,4.588-37.623
	c3.054-11.416,7.282-20.631,12.675-27.643c4.313-5.753,9.574-9.979,15.778-12.677c6.2-2.696,13.708-4.046,22.521-4.046
	c15.457,0,27.731,4.004,36.809,12.003c9.078,8.002,14.876,19.916,17.397,35.734h16.453v-59.602h-14.834l-5.393,16.99
	c-6.839-7.37-13.759-12.493-20.771-15.373c-7.012-2.874-16.09-4.314-27.238-4.314c-22.479,0-40.544,5.664-54.207,16.992
	c-10.79,8.81-19.146,20.588-25.082,35.33c-5.934,14.744-8.898,31.195-8.898,49.354c0,16.005,2.332,30.567,7.013,43.691
	c4.671,13.125,11.414,24.002,20.226,32.631c14.741,14.388,34.521,21.576,59.334,21.576c41.17,0,65.802-20.944,73.894-62.839h-14.833
	C2076.134,306.104,2057.35,321.294,2024.985,321.294z"/>
<path fill="#1B1E18" d="M2201.36,187.526c-8.455,0-16.178,3.33-23.191,9.979c-7.012,6.653-12.588,16.094-16.723,28.318h-1.079
	l-5.933-35.6h-38.838v11.058l20.768,5.123v113.274l-20.768,5.123v11.059h76.057V324.8l-29.127-5.123v-50.434
	c0-7.728,0.719-15.237,2.154-22.52c1.438-7.282,3.416-13.978,5.937-20.091c1.974-4.315,4.133-8.134,6.473-11.462
	c2.333-3.325,4.762-5.976,7.281-7.957c2.514-1.976,4.854-2.966,7.012-2.966c0.899,0,1.84,0.134,2.832,0.404
	c0.985,0.27,1.841,0.675,2.563,1.214c-0.54,1.799-0.901,3.193-1.079,4.178c-0.183,0.991-0.271,2.024-0.271,3.104
	c0,4.854,1.351,8.764,4.048,11.73c2.695,2.966,6.38,4.45,11.057,4.45c4.673,0,8.403-1.57,11.191-4.72
	c2.786-3.145,4.183-7.417,4.183-12.81c0-7.372-2.342-13.258-7.013-17.666C2214.212,189.73,2208.373,187.526,2201.36,187.526z"/>
<path fill="#1B1E18" d="M2272.829,163.524c5.212,0,9.346-1.526,12.406-4.584c3.053-3.056,4.583-7.102,4.583-12.137
	c0-5.212-1.53-9.347-4.583-12.405c-3.061-3.056-7.194-4.585-12.406-4.585c-5.036,0-9.081,1.53-12.138,4.585
	c-3.057,3.059-4.585,7.193-4.585,12.405c0,5.217,1.485,9.305,4.449,12.271C2263.524,162.041,2267.61,163.524,2272.829,163.524z"/>
<polygon fill="#1B1E18" points="2286.044,190.224 2239.116,190.224 2239.116,201.281 2259.881,206.404 2259.881,319.678 
	2239.116,324.8 2239.116,335.859 2306.81,335.859 2306.81,324.8 2286.044,319.678 "/>
<path fill="#1B1E18" d="M2402.819,203.708v-13.485h-34.52v-37.218l-22.654,3.237l-3.504,33.981l-26.165,3.775v9.709h26.165v101.405
	c0,6.654,0.176,11.69,0.538,15.101c0.357,3.42,0.895,6.205,1.616,8.361c2.336,6.653,7.551,9.979,15.643,9.979
	c3.956,0,9.213-0.767,15.777-2.293c6.562-1.525,14.159-3.909,22.791-7.146v-7.822h-18.882c-3.233,0-5.573-0.224-7.012-0.674
	c-1.438-0.446-2.425-1.302-2.964-2.562c-0.54-1.436-0.902-3.278-1.079-5.528c-0.181-2.247-0.271-6.426-0.271-12.542v-96.28H2402.819
	z"/>
<polygon fill="#2F332D" points="671.13,451.122 688.652,451.122 688.652,511.483 696.928,511.483 696.928,451.122 714.45,451.122 
	714.45,443.336 671.13,443.336 "/>
<path fill="#2F332D" d="M743.658,493.957c0,2.212-0.472,4.158-1.412,5.844c-0.942,1.688-2.272,3.002-3.991,3.946
	c-1.721,0.936-3.716,1.408-5.987,1.408c-3.116,0-5.485-0.977-7.107-2.923c-1.624-1.943-2.434-4.703-2.434-8.275v-27.256h-7.787
	v28.232c0,5.32,1.394,9.572,4.185,12.751c2.791,3.182,6.522,4.772,11.196,4.772c2.985,0,5.582-0.671,7.788-1.994
	c2.207-1.332,4.055-3.326,5.549-5.991v7.012h7.787v-44.782h-7.787V493.957z"/>
<path fill="#2F332D" d="M783.28,465.725c-2.079,0-4.123,0.813-6.133,2.436c-1.255,1.014-2.348,2.271-3.312,3.726v-5.185h-7.788
	v44.782h7.788v-27.259c0-2.146,0.209-4.058,0.633-5.742c0.421-1.688,1.183-3.018,2.288-3.991c1.102-0.974,2.629-1.462,4.576-1.462
	c1.298,0,2.368,0.177,3.213,0.535c0.842,0.356,1.785,0.927,2.822,1.705l4.284-6.426c-1.168-1.235-2.451-2.063-3.845-2.482
	C786.41,465.939,784.9,465.725,783.28,465.725z"/>
<path fill="#2F332D" d="M820.563,465.725c-2.92,0-5.5,0.652-7.738,1.947c-2.241,1.301-4.106,3.311-5.599,6.035v-7.006h-7.788v44.782
	h7.788v-27.259c0-2.205,0.471-4.152,1.412-5.844c0.94-1.685,2.272-2.998,3.991-3.943c1.719-0.938,3.715-1.408,5.988-1.408
	c3.114,0,5.483,0.938,7.106,2.822c1.621,1.881,2.434,4.675,2.434,8.373v27.259h7.788v-28.232c0-5.387-1.379-9.651-4.137-12.805
	C829.049,467.3,825.3,465.725,820.563,465.725z"/>
<rect x="852.007" y="466.701" fill="#2F332D" width="7.788" height="44.782"/>
<path fill="#2F332D" d="M855.901,442.851c-1.428,0-2.677,0.52-3.748,1.553c-1.071,1.043-1.606,2.306-1.606,3.802
	c0,1.427,0.536,2.675,1.606,3.748c1.071,1.071,2.32,1.604,3.748,1.604c1.492,0,2.758-0.532,3.797-1.604
	c1.038-1.073,1.557-2.321,1.557-3.748c0-1.496-0.519-2.759-1.557-3.802C858.659,443.37,857.393,442.851,855.901,442.851z"/>
<path fill="#2F332D" d="M896.983,465.725c-2.921,0-5.5,0.652-7.739,1.947c-2.24,1.301-4.106,3.311-5.598,6.035v-7.006h-7.788v44.782
	h7.788v-27.259c0-2.205,0.47-4.152,1.412-5.844c0.939-1.685,2.271-2.998,3.99-3.943c1.72-0.938,3.715-1.408,5.988-1.408
	c3.114,0,5.484,0.938,7.107,2.822c1.621,1.881,2.434,4.675,2.434,8.373v27.259h7.787v-28.232c0-5.387-1.379-9.651-4.136-12.805
	C905.468,467.3,901.72,465.725,896.983,465.725z"/>
<path fill="#2F332D" d="M960.553,474.479c-1.451-2.463-3.259-4.447-5.451-5.925c-2.791-1.884-6.069-2.829-9.833-2.829
	c-4.023,0-7.723,0.945-11.098,2.829c-3.375,1.88-6.068,4.558-8.079,8.029c-2.014,3.471-3.019,7.642-3.019,12.505
	c0,4.807,1.005,8.961,3.019,12.467c2.011,3.503,4.704,6.196,8.079,8.076c3.375,1.881,7.074,2.826,11.098,2.826
	c3.764,0,7.042-0.945,9.833-2.826c2.192-1.477,4-3.478,5.451-5.956v6.835c0,3.762-0.729,6.829-2.189,9.198
	c-1.461,2.372-3.294,4.104-5.501,5.21c-2.206,1.103-4.446,1.656-6.716,1.656c-2.922,0-5.453-0.57-7.594-1.704
	c-2.142-1.14-3.797-2.633-4.966-4.479c-1.167-1.853-1.752-3.847-1.752-5.985h-7.886c0,3.824,0.94,7.217,2.824,10.171
	c1.882,2.955,4.493,5.238,7.836,6.86c3.342,1.623,7.188,2.436,11.538,2.436c3.763,0,7.333-0.876,10.708-2.631
	c3.374-1.751,6.133-4.365,8.274-7.833c2.143-3.475,3.213-7.774,3.213-12.899v-43.809h-7.789V474.479z M958.414,497.854
	c-1.429,2.4-3.247,4.218-5.453,5.453c-2.206,1.234-4.445,1.849-6.717,1.849c-2.726,0-5.257-0.614-7.594-1.849
	c-2.336-1.235-4.203-3.053-5.597-5.453c-1.397-2.4-2.093-5.323-2.093-8.766c0-3.437,0.696-6.354,2.093-8.76
	c1.395-2.397,3.261-4.215,5.597-5.449c2.336-1.232,4.868-1.85,7.594-1.85c1.688,0,3.374,0.356,5.062,1.071
	c1.688,0.715,3.229,1.751,4.624,3.115c1.396,1.36,2.515,3.036,3.359,5.015c0.843,1.978,1.265,4.268,1.265,6.857
	C960.553,492.53,959.84,495.453,958.414,497.854z"/>
<path fill="#2F332D" d="M1030.45,465.725c-4.349,0-8.275,1.012-11.779,3.018c-3.505,2.013-6.278,4.775-8.323,8.278
	c-2.044,3.506-3.066,7.531-3.066,12.067c0,4.485,1.022,8.488,3.066,12.026c2.045,3.54,4.818,6.312,8.323,8.325
	c3.504,2.009,7.431,3.018,11.779,3.018c3.051,0,6.02-0.504,8.908-1.509c2.887-1.009,5.111-2.416,6.669-4.233v-9.74
	c-0.649,1.431-1.753,2.775-3.312,4.045c-1.557,1.266-3.391,2.271-5.5,3.018c-2.108,0.746-4.365,1.118-6.766,1.118
	c-2.92,0-5.534-0.699-7.837-2.092c-2.305-1.396-4.122-3.298-5.453-5.694c-1.328-2.404-1.994-5.163-1.994-8.281
	c0-3.112,0.666-5.885,1.994-8.319c1.331-2.435,3.148-4.337,5.453-5.694c2.303-1.367,4.917-2.045,7.837-2.045
	c2.4,0,4.657,0.375,6.766,1.118c2.109,0.747,3.943,1.739,5.5,2.968c1.559,1.234,2.662,2.595,3.312,4.092v-9.74
	c-1.558-1.811-3.782-3.226-6.669-4.233C1036.469,466.229,1033.5,465.725,1030.45,465.725z"/>
<path fill="#2F332D" d="M1089.299,468.742c-3.472-2.006-7.414-3.018-11.827-3.018c-4.351,0-8.275,1.012-11.779,3.018
	c-3.505,2.013-6.28,4.775-8.324,8.278c-2.045,3.506-3.066,7.531-3.066,12.067c0,4.485,1.021,8.488,3.066,12.026
	c2.044,3.54,4.819,6.312,8.324,8.325c3.504,2.009,7.429,3.018,11.779,3.018c4.413,0,8.355-1.009,11.827-3.018
	c3.472-2.014,6.23-4.785,8.276-8.325c2.044-3.538,3.065-7.541,3.065-12.026c0-4.536-1.021-8.562-3.065-12.067
	C1095.53,473.518,1092.771,470.755,1089.299,468.742z M1090.76,497.369c-1.331,2.396-3.148,4.299-5.451,5.694
	c-2.305,1.393-4.916,2.092-7.837,2.092s-5.534-0.699-7.837-2.092c-2.305-1.396-4.123-3.298-5.453-5.694
	c-1.329-2.404-1.994-5.163-1.994-8.281c0-3.112,0.665-5.885,1.994-8.319c1.33-2.435,3.148-4.337,5.453-5.694
	c2.303-1.367,4.916-2.045,7.837-2.045s5.532,0.678,7.837,2.045c2.303,1.357,4.12,3.26,5.451,5.694
	c1.329,2.435,1.996,5.207,1.996,8.319C1092.756,492.206,1092.089,494.965,1090.76,497.369z"/>
<path fill="#2F332D" d="M1120.695,445.966c0.39-1.298,0.925-2.228,1.605-2.778c0.682-0.548,1.511-0.825,2.483-0.825
	c0.779,0,1.605,0.147,2.482,0.44c0.877,0.29,1.639,0.989,2.287,2.089l4.283-6.426c-0.454-0.646-1.086-1.263-1.897-1.849
	c-0.813-0.58-1.769-1.068-2.873-1.459c-1.104-0.388-2.369-0.583-3.796-0.583c-2.726,0-5.046,0.57-6.961,1.704
	c-1.915,1.135-3.392,2.839-4.429,5.109c-1.039,2.274-1.558,5.194-1.558,8.764v16.549h-4.381v7.302h4.381v37.48h7.787v-37.48h10.223
	v-7.302h-10.223v-15.579C1120.11,448.983,1120.305,447.264,1120.695,445.966z"/>
<path fill="#2F332D" d="M1148.536,445.966c0.391-1.298,0.926-2.228,1.606-2.778c0.682-0.548,1.511-0.825,2.482-0.825
	c0.779,0,1.606,0.147,2.481,0.44c0.879,0.29,1.64,0.989,2.29,2.089l4.282-6.426c-0.454-0.646-1.086-1.263-1.897-1.849
	c-0.813-0.58-1.771-1.068-2.872-1.459c-1.104-0.388-2.37-0.583-3.797-0.583c-2.726,0-5.047,0.57-6.961,1.704
	c-1.915,1.135-3.392,2.839-4.429,5.109c-1.039,2.274-1.559,5.194-1.559,8.764v16.549h-4.38v7.302h4.38v37.48h7.789v-37.48h10.222
	v-7.302h-10.222v-15.579C1147.953,448.983,1148.146,447.264,1148.536,445.966z"/>
<path fill="#2F332D" d="M1196.677,468.5c-3.149-1.849-6.929-2.775-11.342-2.775c-4.414,0-8.292,0.977-11.635,2.924
	c-3.343,1.946-5.937,4.671-7.787,8.177c-1.85,3.503-2.774,7.595-2.774,12.263c0,4.614,0.891,8.668,2.677,12.174
	c1.784,3.506,4.284,6.246,7.497,8.225c3.212,1.981,6.895,2.971,11.048,2.971c4.802,0,8.973-0.961,12.511-2.873
	c3.537-1.915,6.474-4.753,8.811-8.518l-6.328-3.99c-1.622,2.725-3.602,4.753-5.938,6.082s-5.029,1.997-8.08,1.997
	c-3.052,0-5.646-0.649-7.788-1.95c-2.142-1.294-3.766-3.178-4.867-5.645c-0.839-1.871-1.354-4.051-1.557-6.523h35.24
	c0-0.126,0.015-0.435,0.049-0.923c0.031-0.485,0.047-0.954,0.047-1.411c0-4.74-0.842-8.826-2.529-12.271
	C1202.242,472.995,1199.824,470.352,1196.677,468.5z M1177.694,474.438c2.107-1.263,4.656-1.896,7.642-1.896
	c2.531,0,4.736,0.555,6.621,1.654c1.88,1.103,3.358,2.63,4.429,4.576c0.895,1.626,1.393,3.521,1.541,5.648h-26.491
	c0.301-1.673,0.751-3.194,1.391-4.53C1173.96,477.524,1175.583,475.707,1177.694,474.438z"/>
<path fill="#2F332D" d="M1246.812,468.5c-3.147-1.849-6.928-2.775-11.341-2.775c-4.414,0-8.291,0.977-11.634,2.924
	c-3.343,1.946-5.938,4.671-7.788,8.177c-1.85,3.503-2.774,7.595-2.774,12.263c0,4.614,0.892,8.668,2.677,12.174
	s4.283,6.246,7.496,8.225c3.213,1.981,6.896,2.971,11.05,2.971c4.802,0,8.973-0.961,12.51-2.873
	c3.538-1.915,6.474-4.753,8.811-8.518l-6.328-3.99c-1.622,2.725-3.602,4.753-5.939,6.082c-2.337,1.329-5.028,1.997-8.079,1.997
	c-3.052,0-5.646-0.649-7.789-1.95c-2.141-1.294-3.764-3.178-4.866-5.645c-0.84-1.871-1.354-4.051-1.557-6.523h35.239
	c0-0.126,0.018-0.435,0.05-0.923c0.032-0.485,0.048-0.954,0.048-1.411c0-4.74-0.845-8.826-2.529-12.271
	C1252.376,472.995,1249.959,470.352,1246.812,468.5z M1227.829,474.438c2.108-1.263,4.657-1.896,7.643-1.896
	c2.531,0,4.737,0.555,6.619,1.654c1.883,1.103,3.359,2.63,4.429,4.576c0.896,1.626,1.396,3.521,1.544,5.648h-26.492
	c0.3-1.673,0.751-3.194,1.391-4.53C1224.095,477.524,1225.718,475.707,1227.829,474.438z"/>
<rect x="1297.969" y="466.701" fill="#2F332D" width="7.789" height="44.782"/>
<path fill="#2F332D" d="M1301.865,442.851c-1.429,0-2.679,0.52-3.749,1.553c-1.07,1.043-1.605,2.306-1.605,3.802
	c0,1.427,0.535,2.675,1.605,3.748c1.07,1.071,2.32,1.604,3.749,1.604c1.491,0,2.756-0.532,3.796-1.604
	c1.037-1.073,1.557-2.321,1.557-3.748c0-1.496-0.52-2.759-1.557-3.802C1304.621,443.37,1303.356,442.851,1301.865,442.851z"/>
<path fill="#2F332D" d="M1342.946,465.725c-2.922,0-5.5,0.652-7.738,1.947c-2.241,1.301-4.107,3.311-5.599,6.035v-7.006h-7.788
	v44.782h7.788v-27.259c0-2.205,0.471-4.152,1.413-5.844c0.938-1.685,2.271-2.998,3.989-3.943c1.72-0.938,3.715-1.408,5.989-1.408
	c3.113,0,5.482,0.938,7.105,2.822c1.621,1.881,2.434,4.675,2.434,8.373v27.259h7.787v-28.232c0-5.387-1.379-9.651-4.138-12.805
	C1351.431,467.3,1347.683,465.725,1342.946,465.725z"/>
<polygon fill="#2F332D" points="1381.204,451.122 1373.417,451.122 1373.417,466.701 1366.115,466.701 1366.115,474.003 
	1373.417,474.003 1373.417,511.483 1381.204,511.483 1381.204,474.003 1388.505,474.003 1388.505,466.701 1381.204,466.701 "/>
<path fill="#2F332D" d="M1427.397,468.742c-3.473-2.006-7.415-3.018-11.828-3.018c-4.348,0-8.274,1.012-11.78,3.018
	c-3.504,2.013-6.279,4.775-8.323,8.278c-2.045,3.506-3.066,7.531-3.066,12.067c0,4.485,1.021,8.488,3.066,12.026
	c2.044,3.54,4.819,6.312,8.323,8.325c3.506,2.009,7.433,3.018,11.78,3.018c4.413,0,8.355-1.009,11.828-3.018
	c3.472-2.014,6.232-4.785,8.275-8.325c2.044-3.538,3.066-7.541,3.066-12.026c0-4.536-1.022-8.562-3.066-12.067
	C1433.629,473.518,1430.869,470.755,1427.397,468.742z M1428.857,497.369c-1.331,2.396-3.148,4.299-5.452,5.694
	c-2.303,1.393-4.914,2.092-7.836,2.092c-2.921,0-5.534-0.699-7.838-2.092c-2.303-1.396-4.122-3.298-5.451-5.694
	c-1.331-2.404-1.995-5.163-1.995-8.281c0-3.112,0.664-5.885,1.995-8.319c1.329-2.435,3.148-4.337,5.451-5.694
	c2.304-1.367,4.917-2.045,7.838-2.045c2.922,0,5.533,0.678,7.836,2.045c2.304,1.357,4.121,3.26,5.452,5.694
	c1.329,2.435,1.995,5.207,1.995,8.319C1430.852,492.206,1430.186,494.965,1428.857,497.369z"/>
<path fill="#2F332D" d="M1504.012,467.334c-2.629-1.073-5.695-1.609-9.201-1.609c-4.154,0-7.706,0.617-10.661,1.853
	c-2.954,1.234-5.272,2.466-6.959,3.701l3.797,5.742c0.714-0.517,1.686-1.134,2.92-1.853c1.231-0.715,2.74-1.326,4.526-1.849
	c1.784-0.517,3.778-0.778,5.988-0.778c1.362,0,2.658,0.133,3.895,0.388c1.23,0.262,2.316,0.684,3.26,1.267
	c0.94,0.586,1.672,1.383,2.192,2.388c0.517,1.008,0.776,2.286,0.776,3.846v6.482c-1.224-0.787-2.751-1.509-4.624-2.151
	c-2.175-0.743-4.884-1.118-8.128-1.118c-5.518,0-9.818,1.313-12.898,3.94c-3.086,2.627-4.626,6.12-4.626,10.467
	c0,3.049,0.715,5.645,2.144,7.787c1.426,2.145,3.321,3.782,5.691,4.917c2.371,1.134,4.919,1.704,7.644,1.704
	c2.465,0,4.947-0.457,7.446-1.364c2.501-0.907,4.61-2.306,6.331-4.187c0.388-0.428,0.72-0.885,1.021-1.36v5.938h7.787v-32.129
	c0-2.923-0.73-5.387-2.188-7.399C1508.683,469.945,1506.637,468.402,1504.012,467.334z M1502.841,500.141
	c-1.135,1.786-2.659,3.166-4.575,4.139c-1.913,0.974-4.072,1.462-6.473,1.462c-1.885,0-3.553-0.309-5.015-0.926
	c-1.462-0.618-2.596-1.544-3.406-2.775c-0.812-1.234-1.218-2.693-1.218-4.382c0-1.622,0.389-3.018,1.167-4.186
	c0.781-1.172,1.964-2.076,3.555-2.729c1.589-0.646,3.649-0.973,6.182-0.973c2.727,0,5.289,0.343,7.69,1.023
	c1.285,0.365,2.55,0.863,3.797,1.48v1.682C1504.545,496.298,1503.975,498.357,1502.841,500.141z"/>
<path fill="#2F332D" d="M1559.063,474.479c-1.451-2.463-3.261-4.447-5.451-5.925c-2.791-1.884-6.07-2.829-9.834-2.829
	c-4.025,0-7.727,0.945-11.101,2.829c-3.375,1.88-6.066,4.558-8.079,8.029c-2.015,3.471-3.018,7.642-3.018,12.505
	c0,4.807,1.003,8.961,3.018,12.467c2.013,3.503,4.704,6.196,8.079,8.076c3.374,1.881,7.075,2.826,11.101,2.826
	c3.764,0,7.043-0.945,9.834-2.826c2.19-1.477,4-3.478,5.451-5.956v7.809h7.786v-75.935h-7.786V474.479z M1556.918,497.854
	c-1.43,2.4-3.247,4.218-5.45,5.453c-2.21,1.234-4.448,1.849-6.718,1.849c-2.726,0-5.257-0.614-7.596-1.849
	c-2.334-1.235-4.198-3.053-5.596-5.453c-1.396-2.4-2.093-5.323-2.093-8.766c0-3.437,0.696-6.354,2.093-8.76
	c1.397-2.397,3.262-4.215,5.596-5.449c2.339-1.232,4.87-1.85,7.596-1.85c2.27,0,4.508,0.617,6.718,1.85
	c2.203,1.234,4.021,3.052,5.45,5.449c1.428,2.406,2.145,5.323,2.145,8.76C1559.063,492.53,1558.346,495.453,1556.918,497.854z"/>
<polygon fill="#2F332D" points="1595.082,498.342 1582.425,466.701 1573.663,466.701 1595.082,514.889 1616.498,466.701 
	1607.738,466.701 "/>
<path fill="#2F332D" d="M1651.983,468.5c-3.153-1.849-6.93-2.775-11.343-2.775s-8.291,0.977-11.633,2.924
	c-3.345,1.946-5.94,4.671-7.788,8.177c-1.853,3.503-2.776,7.595-2.776,12.263c0,4.614,0.895,8.668,2.676,12.174
	c1.787,3.506,4.287,6.246,7.495,8.225c3.213,1.981,6.899,2.971,11.053,2.971c4.804,0,8.973-0.961,12.508-2.873
	c3.538-1.915,6.477-4.753,8.813-8.518l-6.33-3.99c-1.624,2.725-3.601,4.753-5.935,6.082c-2.34,1.329-5.033,1.997-8.082,1.997
	c-3.053,0-5.647-0.649-7.787-1.95c-2.144-1.294-3.766-3.178-4.869-5.645c-0.838-1.871-1.354-4.051-1.557-6.523h35.241
	c0-0.126,0.015-0.435,0.049-0.923c0.03-0.485,0.046-0.954,0.046-1.411c0-4.74-0.841-8.826-2.529-12.271
	C1657.547,472.995,1655.131,470.352,1651.983,468.5z M1632.997,474.438c2.109-1.263,4.657-1.896,7.644-1.896
	c2.529,0,4.734,0.555,6.621,1.654c1.879,1.103,3.356,2.63,4.425,4.576c0.896,1.626,1.397,3.521,1.544,5.648h-26.49
	c0.301-1.673,0.753-3.194,1.392-4.53C1629.267,477.524,1630.889,475.707,1632.997,474.438z"/>
<path fill="#2F332D" d="M1693.597,465.725c-2.918,0-5.499,0.652-7.739,1.947c-2.238,1.301-4.103,3.311-5.594,6.035v-7.006h-7.793
	v44.782h7.793v-27.259c0-2.205,0.468-4.152,1.408-5.844c0.939-1.685,2.272-2.998,3.99-3.943c1.722-0.938,3.716-1.408,5.986-1.408
	c3.117,0,5.487,0.938,7.109,2.822c1.621,1.881,2.436,4.675,2.436,8.373v27.259h7.786v-28.232c0-5.387-1.378-9.651-4.136-12.805
	C1702.083,467.3,1698.334,465.725,1693.597,465.725z"/>
<polygon fill="#2F332D" points="1731.861,451.122 1724.068,451.122 1724.068,466.701 1716.77,466.701 1716.77,474.003 
	1724.068,474.003 1724.068,511.483 1731.861,511.483 1731.861,474.003 1739.159,474.003 1739.159,466.701 1731.861,466.701 "/>
<path fill="#2F332D" d="M1775.665,493.957c0,2.212-0.474,4.158-1.411,5.844c-0.94,1.688-2.271,3.002-3.992,3.946
	c-1.722,0.936-3.717,1.408-5.986,1.408c-3.117,0-5.485-0.977-7.108-2.923c-1.622-1.943-2.43-4.703-2.43-8.275v-27.256h-7.791v28.232
	c0,5.32,1.396,9.572,4.186,12.751c2.793,3.182,6.522,4.772,11.196,4.772c2.986,0,5.582-0.671,7.79-1.994
	c2.205-1.332,4.053-3.326,5.547-5.991v7.012h7.787v-44.782h-7.787V493.957z"/>
<path fill="#2F332D" d="M1815.289,465.725c-2.077,0-4.126,0.813-6.134,2.436c-1.253,1.014-2.343,2.271-3.31,3.723v-5.182h-7.79
	v44.782h7.79v-27.259c0-2.146,0.21-4.058,0.63-5.742c0.424-1.688,1.185-3.018,2.289-3.991c1.104-0.974,2.63-1.462,4.576-1.462
	c1.296,0,2.37,0.177,3.213,0.535c0.845,0.356,1.784,0.927,2.822,1.705l4.282-6.426c-1.165-1.235-2.447-2.063-3.843-2.482
	C1818.418,465.939,1816.911,465.725,1815.289,465.725z"/>
<path fill="#2F332D" d="M1859.629,468.5c-3.148-1.849-6.931-2.775-11.343-2.775c-4.413,0-8.292,0.977-11.631,2.924
	c-3.342,1.946-5.938,4.671-7.79,8.177c-1.847,3.503-2.773,7.595-2.773,12.263c0,4.614,0.892,8.668,2.678,12.174
	c1.783,3.506,4.282,6.246,7.495,8.225c3.213,1.981,6.896,2.971,11.052,2.971c4.801,0,8.968-0.961,12.508-2.873
	c3.534-1.915,6.474-4.753,8.809-8.518l-6.324-3.99c-1.624,2.725-3.605,4.753-5.941,6.082c-2.332,1.329-5.028,1.997-8.081,1.997
	c-3.047,0-5.643-0.649-7.786-1.95c-2.144-1.294-3.766-3.178-4.87-5.645c-0.839-1.871-1.351-4.051-1.551-6.523h35.236
	c0-0.126,0.017-0.435,0.049-0.923c0.032-0.485,0.05-0.954,0.05-1.411c0-4.74-0.847-8.826-2.532-12.271
	C1865.194,472.995,1862.776,470.352,1859.629,468.5z M1840.649,474.438c2.108-1.263,4.656-1.896,7.638-1.896
	c2.536,0,4.739,0.555,6.621,1.654c1.884,1.103,3.361,2.63,4.429,4.576c0.898,1.626,1.395,3.521,1.541,5.648h-26.489
	c0.299-1.673,0.753-3.194,1.391-4.53C1836.913,477.524,1838.535,475.707,1840.649,474.438z"/>
<path fill="#2F332D" d="M1902.124,487.973c-2.139-1.2-4.511-2.321-7.104-3.361c-1.563-0.648-3.053-1.326-4.478-2.044
	c-1.432-0.712-2.601-1.521-3.505-2.435c-0.913-0.904-1.365-1.943-1.365-3.112c0-1.493,0.583-2.596,1.753-3.313
	c1.169-0.712,2.564-1.068,4.187-1.068c2.334,0,4.429,0.552,6.276,1.654c1.854,1.105,3.392,2.501,4.627,4.189l6.23-3.991
	c-0.91-1.688-2.176-3.185-3.796-4.479c-1.627-1.298-3.491-2.34-5.601-3.118c-2.109-0.774-4.364-1.169-6.765-1.169
	c-2.403,0-4.722,0.426-6.96,1.267c-2.239,0.848-4.057,2.142-5.452,3.896c-1.396,1.751-2.096,3.959-2.096,6.618
	c0,2.595,0.666,4.759,1.997,6.476c1.329,1.72,2.986,3.112,4.964,4.187c1.981,1.071,3.942,1.994,5.891,2.771
	c1.753,0.649,3.409,1.349,4.964,2.092c1.563,0.75,2.84,1.657,3.85,2.728c1.004,1.074,1.509,2.388,1.509,3.94
	c0,1.755-0.637,3.138-1.901,4.143c-1.265,1.008-2.998,1.506-5.208,1.506c-1.817,0-3.487-0.337-5.014-1.021
	c-1.524-0.684-2.872-1.606-4.038-2.772c-1.17-1.172-2.208-2.435-3.116-3.799l-6.136,3.799c0.844,1.752,2.098,3.472,3.752,5.16
	c1.652,1.685,3.683,3.064,6.083,4.136c2.4,1.073,5.095,1.606,8.081,1.606c4.605,0,8.322-1.298,11.147-3.896
	c2.822-2.596,4.235-5.84,4.235-9.733c0-2.658-0.635-4.835-1.901-6.526C1905.969,490.615,1904.265,489.173,1902.124,487.973z"/>
<path fill="#2F332D" d="M1970.563,487.973c-2.146-1.2-4.515-2.321-7.109-3.361c-1.559-0.648-3.053-1.326-4.479-2.044
	c-1.425-0.712-2.596-1.521-3.503-2.435c-0.91-0.904-1.36-1.943-1.36-3.112c0-1.493,0.583-2.596,1.751-3.313
	c1.164-0.712,2.561-1.068,4.184-1.068c2.338,0,4.43,0.552,6.28,1.654c1.849,1.105,3.393,2.501,4.621,4.189l6.235-3.991
	c-0.912-1.688-2.178-3.185-3.801-4.479c-1.62-1.298-3.485-2.34-5.594-3.118c-2.112-0.774-4.366-1.169-6.77-1.169
	c-2.4,0-4.72,0.426-6.961,1.267c-2.238,0.848-4.054,2.142-5.451,3.896c-1.396,1.751-2.092,3.959-2.092,6.618
	c0,2.595,0.667,4.759,1.996,6.476c1.33,1.72,2.981,3.112,4.966,4.187c1.978,1.071,3.943,1.994,5.89,2.771
	c1.754,0.649,3.404,1.349,4.965,2.092c1.558,0.75,2.84,1.657,3.844,2.728c1.009,1.074,1.508,2.388,1.508,3.94
	c0,1.755-0.63,3.138-1.895,4.143c-1.265,1.008-3.005,1.506-5.209,1.506c-1.816,0-3.491-0.337-5.016-1.021
	c-1.521-0.684-2.869-1.606-4.04-2.772c-1.17-1.172-2.205-2.435-3.112-3.799l-6.134,3.799c0.843,1.752,2.09,3.472,3.748,5.16
	c1.655,1.685,3.681,3.064,6.086,4.136c2.398,1.073,5.09,1.606,8.076,1.606c4.61,0,8.327-1.298,11.147-3.896
	c2.822-2.596,4.234-5.84,4.234-9.733c0-2.658-0.631-4.835-1.898-6.526C1974.405,490.615,1972.705,489.173,1970.563,487.973z"/>
<path fill="#2F332D" d="M1993.147,442.851c-1.432,0-2.679,0.52-3.748,1.553c-1.072,1.043-1.608,2.306-1.608,3.802
	c0,1.427,0.536,2.675,1.608,3.748c1.069,1.071,2.316,1.604,3.748,1.604c1.492,0,2.756-0.532,3.796-1.604
	c1.038-1.073,1.556-2.321,1.556-3.748c0-1.496-0.518-2.759-1.556-3.802C1995.903,443.37,1994.639,442.851,1993.147,442.851z"/>
<rect x="1989.25" y="466.701" fill="#2F332D" width="7.787" height="44.782"/>
<path fill="#2F332D" d="M2034.227,465.725c-2.918,0-5.5,0.652-7.738,1.947c-2.239,1.301-4.105,3.311-5.598,6.035v-7.006h-7.789
	v44.782h7.789v-27.259c0-2.205,0.471-4.152,1.411-5.844c0.938-1.685,2.272-2.998,3.989-3.943c1.722-0.938,3.717-1.408,5.986-1.408
	c3.119,0,5.487,0.938,7.108,2.822c1.622,1.881,2.435,4.675,2.435,8.373v27.259h7.787v-28.232c0-5.387-1.379-9.651-4.133-12.805
	C2042.712,467.3,2038.965,465.725,2034.227,465.725z"/>
<path fill="#2F332D" d="M2083,465.725c-4.347,0-8.272,1.012-11.78,3.018c-3.506,2.013-6.277,4.775-8.321,8.278
	c-2.043,3.506-3.065,7.531-3.065,12.067c0,4.485,1.022,8.488,3.065,12.026c2.044,3.54,4.815,6.312,8.321,8.325
	c3.508,2.009,7.434,3.018,11.78,3.018c3.048,0,6.019-0.504,8.91-1.509c2.885-1.009,5.107-2.416,6.668-4.233v-9.74
	c-0.653,1.431-1.751,2.775-3.313,4.045c-1.557,1.266-3.392,2.271-5.501,3.018c-2.107,0.746-4.364,1.118-6.765,1.118
	c-2.92,0-5.534-0.699-7.836-2.092c-2.307-1.396-4.124-3.298-5.455-5.694c-1.33-2.404-1.995-5.163-1.995-8.281
	c0-3.112,0.665-5.885,1.995-8.319c1.331-2.435,3.148-4.337,5.455-5.694c2.302-1.367,4.916-2.045,7.836-2.045
	c2.4,0,4.657,0.375,6.765,1.118c2.109,0.747,3.944,1.739,5.501,2.968c1.562,1.234,2.659,2.595,3.313,4.092v-9.74
	c-1.561-1.811-3.783-3.226-6.668-4.233C2089.019,466.229,2086.048,465.725,2083,465.725z"/>
<path fill="#2F332D" d="M2140.389,468.5c-3.147-1.849-6.93-2.775-11.343-2.775s-8.291,0.977-11.63,2.924
	c-3.344,1.946-5.939,4.671-7.789,8.177c-1.85,3.503-2.775,7.595-2.775,12.263c0,4.614,0.892,8.668,2.679,12.174
	c1.781,3.506,4.282,6.246,7.495,8.225c3.213,1.981,6.896,2.971,11.05,2.971c4.801,0,8.97-0.961,12.509-2.873
	c3.533-1.915,6.473-4.753,8.809-8.518l-6.327-3.99c-1.62,2.725-3.604,4.753-5.938,6.082c-2.335,1.329-5.03,1.997-8.082,1.997
	c-3.046,0-5.646-0.649-7.787-1.95c-2.142-1.294-3.766-3.178-4.869-5.645c-0.838-1.871-1.352-4.051-1.552-6.523h35.236
	c0-0.126,0.018-0.435,0.047-0.923c0.037-0.485,0.054-0.954,0.054-1.411c0-4.74-0.847-8.826-2.535-12.271
	C2145.954,472.995,2143.538,470.352,2140.389,468.5z M2121.408,474.438c2.107-1.263,4.655-1.896,7.639-1.896
	c2.534,0,4.739,0.555,6.62,1.654c1.883,1.103,3.361,2.63,4.431,4.576c0.895,1.626,1.391,3.521,1.539,5.648h-26.491
	c0.303-1.673,0.755-3.194,1.395-4.53C2117.673,477.524,2119.293,475.707,2121.408,474.438z"/>
<path fill="#2F332D" d="M2223.48,481.594c2.658-2.725,4.833-5.809,6.521-9.248c1.688-3.437,2.529-6.91,2.529-10.416
	c0-2.076-0.421-4.253-1.266-6.521c-0.842-2.274-2.139-4.397-3.895-6.379c-1.751-1.978-3.99-3.604-6.717-4.869
	c-2.725-1.264-5.968-1.896-9.733-1.896c-4.675,0-8.683,1.023-12.021,3.067c-3.344,2.045-5.892,4.898-7.644,8.568
	c-1.751,3.663-2.63,7.935-2.63,12.801h8.278c0-3.439,0.546-6.41,1.652-8.911c1.105-2.494,2.707-4.413,4.82-5.742
	c2.109-1.329,4.621-1.997,7.544-1.997c2.077,0,3.927,0.359,5.552,1.071c1.621,0.718,2.999,1.657,4.133,2.825
	c1.137,1.172,1.997,2.467,2.584,3.896c0.582,1.424,0.875,2.886,0.875,4.379c0,1.817-0.279,3.556-0.827,5.206
	c-0.553,1.657-1.366,3.279-2.435,4.87c-1.07,1.591-2.352,3.197-3.848,4.816l-32.221,34.368h48.09v-7.79h-31.055L2223.48,481.594z"/>
<path fill="#2F332D" d="M2280.575,446.889c-3.801-3.018-8.194-4.526-13.195-4.526c-4.994,0-9.39,1.509-13.189,4.526
	c-3.796,3.021-6.765,7.156-8.908,12.41c-2.141,5.261-3.211,11.296-3.211,18.109c0,6.816,1.07,12.852,3.211,18.105
	c2.144,5.26,5.112,9.396,8.908,12.413c3.8,3.021,8.195,4.53,13.189,4.53c5.001,0,9.395-1.509,13.195-4.53
	c3.795-3.018,6.765-7.153,8.909-12.413c2.138-5.254,3.213-11.289,3.213-18.105c0-6.813-1.075-12.849-3.213-18.109
	C2287.339,454.045,2284.37,449.909,2280.575,446.889z M2283.249,488.363c-0.777,3.345-1.912,6.23-3.404,8.662
	c-1.495,2.432-3.277,4.315-5.355,5.647c-2.078,1.326-4.447,1.994-7.109,1.994c-2.596,0-4.946-0.668-7.056-1.994
	c-2.106-1.332-3.912-3.216-5.403-5.647s-2.625-5.317-3.403-8.662c-0.783-3.346-1.171-6.996-1.171-10.955
	c0-3.957,0.388-7.607,1.171-10.952c0.778-3.339,1.912-6.23,3.403-8.666c1.491-2.429,3.297-4.312,5.403-5.642
	c2.109-1.329,4.46-1.996,7.056-1.996c2.662,0,5.031,0.667,7.109,1.996c2.078,1.33,3.86,3.213,5.355,5.642
	c1.492,2.436,2.627,5.327,3.404,8.666c0.781,3.345,1.169,6.995,1.169,10.952C2284.417,481.367,2284.03,485.018,2283.249,488.363z"/>
<path fill="#2F332D" d="M2337.281,481.594c2.66-2.725,4.833-5.809,6.521-9.248c1.686-3.437,2.529-6.91,2.529-10.416
	c0-2.076-0.421-4.253-1.265-6.521c-0.844-2.274-2.139-4.397-3.896-6.379c-1.751-1.978-3.99-3.604-6.715-4.869
	c-2.727-1.264-5.971-1.896-9.735-1.896c-4.673,0-8.683,1.023-12.021,3.067c-3.344,2.045-5.89,4.898-7.644,8.568
	c-1.751,3.663-2.628,7.935-2.628,12.801h8.276c0-3.439,0.548-6.41,1.652-8.911c1.104-2.494,2.709-4.413,4.82-5.742
	c2.11-1.329,4.623-1.997,7.544-1.997c2.079,0,3.925,0.359,5.552,1.071c1.622,0.718,2.999,1.657,4.135,2.825
	c1.134,1.172,1.996,2.467,2.581,3.896c0.583,1.424,0.874,2.886,0.874,4.379c0,1.817-0.277,3.556-0.825,5.206
	c-0.553,1.657-1.364,3.279-2.435,4.87s-2.352,3.197-3.847,4.816l-32.22,34.368h48.086v-7.79h-31.053L2337.281,481.594z"/>
<path fill="#2F332D" d="M2400.364,477.115c-1.752-3.437-4.174-6.133-7.253-8.076c-3.087-1.947-6.574-2.92-10.469-2.92
	c-1.687,0-3.391,0.211-5.107,0.63c-1.724,0.425-3.393,1.055-5.013,1.899l4.573-18.015h25.703v-7.298h-32.129l-8.957,36.312
	c2.336-1.622,4.397-2.87,6.184-3.748c1.782-0.876,3.568-1.493,5.352-1.85c1.786-0.355,3.751-0.532,5.89-0.532
	c2.922,0,5.535,0.646,7.839,1.947c2.305,1.294,4.124,3.111,5.451,5.452c1.331,2.334,1.997,5.059,1.997,8.171
	c0,3.118-0.6,5.846-1.801,8.18c-1.204,2.338-2.938,4.155-5.208,5.453c-2.274,1.297-5.03,1.946-8.278,1.946
	c-2.466,0-4.834-0.535-7.103-1.604c-2.274-1.074-4.27-2.466-5.991-4.189c-1.718-1.717-3.1-3.55-4.134-5.499l-7.009,4.771
	c1.492,2.596,3.322,4.98,5.498,7.153c2.176,2.177,4.801,3.909,7.883,5.21c3.082,1.295,6.705,1.947,10.855,1.947
	c3.314,0,6.392-0.488,9.254-1.462c2.85-0.974,5.381-2.435,7.589-4.382c2.205-1.946,3.927-4.381,5.161-7.298
	c1.23-2.923,1.848-6.331,1.848-10.228C2402.989,484.552,2402.115,480.558,2400.364,477.115z"/>
<path fill-rule="evenodd" clip-rule="evenodd" fill="#4D693A" d="M429.399,426.079c-9.617,198.814-400.81,192.789-410.135,0
	c-0.006-0.125-0.01-0.25-0.01-0.375c0-55.114,0-110.227,0-165.341c0-5.076,4.668-8.57,9.463-8.57h391.228
	c4.795,0,9.464,3.493,9.464,8.57c0,55.114,0,110.227,0,165.341C429.409,425.829,429.405,425.954,429.399,426.079 M448.663,292.963
	h42.086l0.192,6.261c0.225,7.314,0.402,14.632,0.353,21.95c-0.042,6.275-0.244,12.558-0.862,18.805
	c-0.984,9.937-3.101,20.639-8.831,29.01c-6.478,9.463-16.822,14.641-27.534,17.854l-5.403,1.622V292.963z M448.632,427.01
	c0.021-0.436,0.031-0.871,0.031-1.306V406.63l3.228-0.766c2.751-0.653,5.484-1.387,8.188-2.215
	c12.884-3.949,24.791-10,33.495-20.557c1.044-1.267,2.029-2.582,2.957-3.936c0.997-1.455,1.924-2.958,2.78-4.499
	c6.204-11.166,8.447-24.092,9.388-36.689c0.604-8.097,0.685-16.229,0.596-24.344c-0.088-8.054-0.726-16.057-0.918-24.104
	c-0.194-8.18-7.411-14.701-15.505-14.7l-44.209,0.008v-14.463c0-15.714-13.252-27.825-28.718-27.825H28.717
	C13.251,232.538,0,244.649,0,260.363c0,55.114,0,110.227,0,165.341c0,0.435,0.011,0.87,0.032,1.306
	C10.535,644.163,437.837,650.161,448.632,427.01z"/>
<path fill-rule="evenodd" clip-rule="evenodd" fill="#C1790E" d="M281.829,129c9.57-8.983,17.708-20.182,17.74-33.839
	c0.033-13.732-8.25-25.324-17.647-34.577c-0.12-0.118-0.244-0.232-0.371-0.343l-0.071-0.063l-0.044-0.044
	c-1.785-1.516-3.464-3.163-4.979-4.95c-4.233-4.993-7.111-11.062-7.111-17.705c0-6.644,2.878-12.712,7.111-17.706
	c1.522-1.795,3.209-3.45,5.005-4.971c3.509-2.971,3.959-8.338,0.987-11.849c-2.969-3.509-8.338-3.959-11.847-0.987
	c-2.509,2.124-4.855,4.44-6.981,6.947c-6.862,8.094-11.129,17.855-11.129,28.564c0,10.708,4.267,20.471,11.129,28.564
	c2.05,2.417,4.306,4.655,6.712,6.718l0.07,0.06l0.066,0.066c5.747,5.716,12.34,13.754,12.319,22.277
	c-0.02,8.435-6.663,16.137-12.493,21.608l-0.062,0.067l-0.098,0.087c-2.563,2.293-4.94,4.797-7.074,7.496
	c-6.606,8.355-10.636,18.391-10.533,29.123c0.103,10.695,4.257,20.483,11.297,28.46c2.126,2.41,4.487,4.61,7.007,6.603
	c3.622,2.861,8.919,2.24,11.78-1.382s2.239-8.918-1.382-11.78c-1.742-1.375-3.367-2.899-4.837-4.564
	c-4.313-4.887-7.021-10.888-7.083-17.465c-0.065-6.859,2.708-13.279,6.913-18.597c1.609-2.036,3.425-3.905,5.369-5.621
	c0.019-0.016,0.037-0.033,0.055-0.049l0.107-0.098L281.829,129z M225.638,129.001c9.572-8.982,17.711-20.183,17.743-33.841
	c0.032-13.732-8.25-25.323-17.648-34.577c-0.12-0.119-0.245-0.234-0.373-0.345l-0.07-0.062l-0.039-0.04
	c-1.787-1.517-3.467-3.165-4.982-4.953c-4.234-4.993-7.111-11.061-7.111-17.705c0-6.644,2.877-12.712,7.111-17.705
	c1.522-1.795,3.209-3.451,5.005-4.971c3.509-2.971,3.958-8.338,0.987-11.849c-2.969-3.509-8.338-3.959-11.847-0.987
	c-2.508,2.124-4.855,4.44-6.981,6.947c-6.863,8.094-11.129,17.855-11.129,28.564c0,10.708,4.266,20.471,11.129,28.564
	c2.049,2.417,4.306,4.656,6.711,6.718l0.071,0.06l0.066,0.066c5.747,5.717,12.339,13.754,12.32,22.277
	c-0.021,8.435-6.664,16.137-12.494,21.608l-0.061,0.067l-0.098,0.087c-2.564,2.294-4.941,4.797-7.075,7.496
	c-6.605,8.355-10.635,18.391-10.532,29.123c0.103,10.695,4.258,20.483,11.296,28.46c2.126,2.41,4.486,4.61,7.007,6.603
	c3.622,2.861,8.919,2.24,11.779-1.382c2.862-3.623,2.24-8.917-1.382-11.78c-1.741-1.376-3.367-2.899-4.837-4.564
	c-4.312-4.888-7.02-10.888-7.083-17.465c-0.065-6.859,2.708-13.278,6.913-18.597c1.61-2.036,3.424-3.905,5.37-5.621
	c0.018-0.016,0.036-0.032,0.054-0.048l0.104-0.095L225.638,129.001z M170.615,129c9.571-8.983,17.709-20.182,17.741-33.839
	c0.032-13.732-8.251-25.323-17.648-34.577c-0.12-0.118-0.244-0.232-0.371-0.343l-0.071-0.063l-0.044-0.044
	c-1.785-1.516-3.463-3.164-4.979-4.951c-4.234-4.993-7.112-11.061-7.112-17.705c0-6.644,2.878-12.712,7.112-17.705
	c1.522-1.795,3.209-3.451,5.005-4.971c3.509-2.971,3.958-8.338,0.987-11.849c-2.969-3.509-8.338-3.958-11.847-0.987
	c-2.508,2.124-4.855,4.44-6.981,6.947c-6.863,8.094-11.129,17.855-11.129,28.564s4.267,20.471,11.129,28.564
	c2.049,2.417,4.306,4.656,6.711,6.718l0.071,0.06l0.065,0.066c5.747,5.717,12.339,13.754,12.32,22.277
	c-0.02,8.435-6.663,16.137-12.494,21.608l-0.061,0.067l-0.098,0.087c-2.563,2.294-4.941,4.797-7.074,7.496
	c-6.606,8.355-10.635,18.391-10.533,29.123c0.102,10.695,4.257,20.483,11.296,28.46c2.126,2.41,4.487,4.61,7.008,6.603
	c3.622,2.862,8.917,2.239,11.779-1.382c2.862-3.623,2.239-8.918-1.382-11.78c-1.742-1.376-3.368-2.899-4.837-4.564
	c-4.313-4.888-7.02-10.888-7.083-17.465c-0.065-6.859,2.708-13.278,6.913-18.597c1.609-2.036,3.425-3.905,5.37-5.621
	c0.018-0.016,0.037-0.033,0.054-0.049l0.108-0.098L170.615,129z"/>
<path fill="#4D693A" d="M146.459,355.144c3.921,2.215,7.587,4.294,8.147,4.622c0.56,0.327,1.195,0.599,1.41,0.604
	c0.629,0.016,4.703-4.884,28.79-34.615c8.868-10.945,11.489-14.28,11.341-14.427c-0.121-0.122-1.815,0.794-12.898,6.974
	c-37.095,20.685-47.111,26.352-49.863,28.216l-0.852,0.578l3.399,2.011C137.802,350.212,142.54,352.929,146.459,355.144z"/>
<path fill="#4D693A" d="M136.403,362.353c-6.768-4.059-8.375-4.903-8.701-4.576c-0.131,0.13-0.342,1.428-0.468,2.884
	c-0.376,4.317-0.851,49.527-0.63,59.931l0.2,9.42l0.827-1.805c2.197-4.795,22.52-56.144,22.52-56.899
	C150.151,370.955,143.21,366.434,136.403,362.353z"/>
<path fill="#4D693A" d="M207.69,482.096c-3.291-0.555-14.919-2.557-25.842-4.448c-25.925-4.49-29.153-5.027-29.635-4.936
	c-0.464,0.09-1.116-0.299,23.016,13.694c10.083,5.845,22.972,13.33,28.643,16.633s10.38,6.009,10.464,6.015
	c0.338,0.021,0.483-4.393,0.483-14.674v-10.786l-0.573-0.245C213.93,483.214,210.98,482.649,207.69,482.096z"/>
<path fill="#4D693A" d="M207.923,470.772c0.209,0.2,1.549,0.097,1.549-0.119c0-0.223-1.997-3.729-14.375-25.238
	c-3.747-6.512-7.194-12.596-7.66-13.521c-0.466-0.924-1.654-3.017-2.64-4.65c-0.986-1.632-4.391-7.578-7.565-13.212
	c-15.165-26.913-17.838-31.534-18.324-31.687c-0.154-0.049-0.998,1.548-1.873,3.548c-2.029,4.637-21.94,54.538-27.122,67.97
	c-1.502,3.894-1.526,3.771,0.717,3.771c1.704,0.001,7.89,0.918,16.978,2.519c3.989,0.702,15.615,2.716,25.838,4.477
	C194.261,468.214,207.765,470.619,207.923,470.772z"/>
<path fill="#4D693A" d="M216.273,362.666c43.391-0.005,53.172-0.131,54.185-0.698c0.46-0.257,0.762,0.134-12.357-15.973
	c-4.563-5.601-11.204-13.792-14.76-18.204c-3.556-4.411-7.058-8.707-7.783-9.547c-0.727-0.84-2.733-3.303-4.461-5.474
	c-4.425-5.56-10.39-12.475-10.761-12.475c-0.172,0-1.742,1.805-3.487,4.01c-1.746,2.206-4.782,5.958-6.745,8.338
	s-4.591,5.646-5.84,7.256c-1.249,1.61-3.146,3.958-4.214,5.219c-4.053,4.778-29.696,36.425-30.069,37.107
	C169.749,362.649,172.029,362.671,216.273,362.666z"/>
<path fill="#4D693A" d="M262.421,333.265c1.321,1.681,3.099,3.857,3.948,4.838c0.849,0.98,3.939,4.761,6.867,8.402
	c2.929,3.64,6.681,8.252,8.341,10.247c1.658,1.996,3.188,3.628,3.398,3.628c0.557,0,1.778-0.659,12.119-6.535
	c5.135-2.917,9.946-5.635,10.693-6.039c1.06-0.575,1.274-0.787,0.977-0.968c-0.21-0.127-10.121-5.705-22.022-12.395
	c-11.902-6.689-26.326-14.819-32.055-18.067c-5.727-3.248-10.466-5.852-10.529-5.788c-0.113,0.112,6.407,8.228,12.796,15.931
	C258.639,328.548,261.099,331.585,262.421,333.265z"/>
<path fill="#4D693A" d="M314.146,357.867l-0.169-0.604l-2.415,1.261c-4.96,2.588-16.821,9.999-19.517,12.194l-1.063,0.865l0.9,2.227
	c2.604,6.448,19.304,49.029,21.239,54.155l0.861,2.283l0.154-12.085C314.349,401.672,314.354,358.611,314.146,357.867z"/>
<path fill="#4D693A" d="M270.575,475.711c-19.482,3.538-37.603,6.619-42.709,7.264c-1.134,0.143-1.341,0.251-1.364,0.717
	c-0.016,0.302-0.005,4.73,0.024,9.843c0.05,9.063,0.274,14.428,0.624,14.994c0.096,0.154,0.211,0.28,0.256,0.28
	c0.046,0,1.328-0.762,2.85-1.693c3.488-2.136,40.554-23.624,49.229-28.54c8.206-4.649,10.503-6.025,10.22-6.119
	C289.402,472.354,283.863,473.297,270.575,475.711z"/>
<path fill="#4D693A" d="M273.26,373.926c-0.256-0.255-92.168-0.214-99.502,0.044l-6.055,0.215l1.061,1.944
	c0.582,1.069,2.747,4.865,4.811,8.436c2.063,3.571,4.098,7.18,4.521,8.021c0.423,0.84,1.654,3.017,2.735,4.836
	c1.081,1.821,3.999,6.919,6.485,11.33c12.656,22.453,29.82,52.389,32.006,55.82c0.602,0.944,1.202,1.719,1.333,1.719
	c0.388,0,1.724-2.298,19.69-33.861C273.354,374.433,273.502,374.168,273.26,373.926z M211.522,433.029
	c-6.904-4.178-9.629-16.056-6.05-28.369c3.761-12.922,13.121-21.712,21.505-20.611c0.628,0.081,1.015,0.754,0.746,1.324
	c-1.337,2.803-3.159,5.639-5.106,8.655l-0.003,0.005c-6.072,9.424-13.319,20.684-9.675,38.032
	C213.106,432.862,212.228,433.456,211.522,433.029z M237.203,413.888c-3.451,11.877-11.639,20.256-19.455,20.683
	c-0.427,0.024-0.822-0.285-0.934-0.704c-4.643-17.43,2.341-28.261,8.63-38.008c2.001-3.105,3.949-6.13,5.406-9.217
	c0.263-0.548,0.949-0.721,1.425-0.35h-0.006C238.345,391.028,240.585,402.264,237.203,413.888z"/>
<path fill="#4D693A" d="M287.115,393.095c-1.646-4.201-3.326-8.374-3.734-9.274l-0.74-1.636l-0.523,0.745
	c-1.801,2.565-38.821,67.046-48.115,83.809c-1.028,1.854-1.871,3.544-1.871,3.755c0,0.441,0.047,0.446,1.4,0.134
	c1.888-0.438,22.518-4.037,44.555-7.776c27.094-4.597,33.443-5.813,33.859-6.486c0.169-0.274-9.658-25.437-18.396-47.102
	C291.657,404.571,288.763,397.295,287.115,393.095z"/>
</svg>
